<svg xmlns="http://www.w3.org/2000/svg" width="1200" height="700" viewBox="0 0 1200 700" fill="none">
<defs>
<filter id="roughShadow" x="-10%" y="-10%" width="130%" height="130%"><feDropShadow dx="0" dy="2" stdDeviation="2" flood-color="#000000" flood-opacity="0.08"/></filter>
</defs>
<path d="M230.0,118.4 L298.3,126.7 L366.7,122.0 L435.0,128.3 L503.3,128.9 L571.7,113.8 L640.0,112.4 L708.3,134.6 L776.7,119.0 L845.0,118.3 L913.3,138.9 L981.7,124.7 L1050.0,134.6 L1053.9,208.0 L1058.3,286.0 L1045.1,364.0 L1058.1,442.0 L1050.0,534.4 L981.7,525.1 L913.3,531.0 L845.0,529.1 L776.7,512.7 L708.3,531.5 L640.0,527.0 L571.7,519.1 L503.3,511.8 L435.0,534.4 L366.7,523.8 L298.3,530.4 L230.0,534.7 L231.3,442.0 L236.9,364.0 L222.7,286.0 L233.6,208.0 Z" fill="#111111" filter="url(#roughShadow)"/>
<path d="M290.0,520.0 L286.0,544.0 L294.0,578.0" stroke="#111111" stroke-width="10" stroke-linecap="round"/>
<path d="M940.0,515.0 L940.0,546.0 L948.0,574.0" stroke="#111111" stroke-width="12" stroke-linecap="round"/>
<path d="M110.0,212.5 Q213.5,155.0 317.0,212.5 Q213.5,270.0 110.0,212.5 Z" fill="#F7F3EA" stroke="#111111" stroke-width="14" stroke-linejoin="round"/>
<line x1="127.2" y1="145.8" x2="133.0" y2="164.2" stroke="#FFD329" stroke-width="11" stroke-linecap="round"/>
<line x1="156.0" y1="140.1" x2="161.8" y2="164.2" stroke="#FFD329" stroke-width="11" stroke-linecap="round"/>
<line x1="188.2" y1="145.8" x2="193.9" y2="164.2" stroke="#FFD329" stroke-width="11" stroke-linecap="round"/>
<line x1="220.4" y1="140.1" x2="226.1" y2="164.2" stroke="#FFD329" stroke-width="11" stroke-linecap="round"/>
<line x1="252.6" y1="145.8" x2="258.4" y2="164.2" stroke="#FFD329" stroke-width="11" stroke-linecap="round"/>
<line x1="282.5" y1="140.1" x2="288.2" y2="164.2" stroke="#FFD329" stroke-width="11" stroke-linecap="round"/>
<circle cx="215.8" cy="212.5" r="27.6" fill="#14BCEB" stroke="#111111" stroke-width="10"/>
<circle cx="215.8" cy="212.5" r="11.5" fill="#111111"/>
<path d="M185.0,268.0 C177.0,285.0 178.0,300.0 185.0,312.0 C195.0,298.0 194.0,283.0 185.0,268.0 Z" fill="#EF3E23"/>
<path d="M225.0,268.0 C217.0,285.0 218.0,300.0 225.0,312.0 C235.0,298.0 234.0,283.0 225.0,268.0 Z" fill="#FF7A00"/>
<path d="M264.0,268.0 C256.0,285.0 257.0,300.0 264.0,312.0 C274.0,298.0 273.0,283.0 264.0,268.0 Z" fill="#EF3E23"/>
<path d="M770.0,196.0 L780.0,128.0 L812.9,158.6 L837.6,118.0 L863.6,157.0 L890.0,132.0 L900.0,196.0" fill="#FFD329" stroke="#111111" stroke-width="12" stroke-linejoin="round" stroke-linecap="round"/>
<path d="M705.0,98.0 L710.9,113.9 L727.8,114.6 L714.5,125.1 L719.1,141.4 L705.0,132.0 L690.9,141.4 L695.5,125.1 L682.2,114.6 L699.1,113.9 Z" fill="#FFD329" stroke="#111111" stroke-width="6" stroke-linejoin="round"/>
<path d="M609.20,264.53 Q604.14,267.00 598.70,268.24 Q593.25,269.46 587.45,269.46 Q574.33,269.46 566.67,262.13 Q559.01,254.79 559.01,242.25 Q559.01,229.56 566.80,222.28 Q574.61,215.00 588.19,215.00 Q593.42,215.00 598.21,215.99 Q603.02,216.97 607.27,218.90 L607.27,229.76 Q602.88,227.27 598.54,226.05 Q594.20,224.81 589.83,224.81 Q581.75,224.81 577.38,229.33 Q573.00,233.84 573.00,242.25 Q573.00,250.57 577.22,255.12 Q581.44,259.65 589.20,259.65 Q591.32,259.65 593.13,259.39 Q594.94,259.12 596.38,258.56 L596.38,248.37 L588.11,248.37 L588.11,239.29 L609.20,239.29 L609.20,264.53 Z" fill="#FF7A00" stroke="none"/>
<path d="M639.80,224.81 Q633.62,224.81 630.21,229.38 Q626.80,233.94 626.80,242.25 Q626.80,250.50 630.21,255.08 Q633.62,259.65 639.80,259.65 Q646.03,259.65 649.43,255.08 Q652.84,250.50 652.84,242.25 Q652.84,233.94 649.43,229.38 Q646.03,224.81 639.80,224.81 Z M639.80,215.00 Q652.46,215.00 659.63,222.25 Q666.80,229.48 666.80,242.25 Q666.80,254.97 659.63,262.22 Q652.46,269.46 639.80,269.46 Q627.18,269.46 619.99,262.22 Q612.80,254.97 612.80,242.25 Q612.80,229.48 619.99,222.25 Q627.18,215.00 639.80,215.00 Z" fill="#FFD329" stroke="none"/>
<path d="M697.40,224.81 Q691.22,224.81 687.81,229.38 Q684.40,233.94 684.40,242.25 Q684.40,250.50 687.81,255.08 Q691.22,259.65 697.40,259.65 Q703.63,259.65 707.03,255.08 Q710.44,250.50 710.44,242.25 Q710.44,233.94 707.03,229.38 Q703.63,224.81 697.40,224.81 Z M697.40,215.00 Q710.06,215.00 717.23,222.25 Q724.40,229.48 724.40,242.25 Q724.40,254.97 717.23,262.22 Q710.06,269.46 697.40,269.46 Q684.78,269.46 677.59,262.22 Q670.40,254.97 670.40,242.25 Q670.40,229.48 677.59,222.25 Q684.78,215.00 697.40,215.00 Z" fill="#FF7A00" stroke="none"/>
<path d="M741.54,225.24 L741.54,257.27 L746.39,257.27 Q754.68,257.27 759.05,253.15 Q763.44,249.03 763.44,241.19 Q763.44,233.39 759.08,229.32 Q754.72,225.24 746.39,225.24 L741.54,225.24 Z M728.00,215.00 L742.27,215.00 Q754.23,215.00 760.08,216.71 Q765.93,218.41 770.11,222.49 Q773.80,226.05 775.59,230.69 Q777.39,235.33 777.39,241.19 Q777.39,247.14 775.59,251.80 Q773.80,256.46 770.11,260.00 Q765.89,264.08 759.99,265.79 Q754.08,267.49 742.27,267.49 L728.00,267.49 L728.00,215.00 Z" fill="#FFD329" stroke="none"/>
<path d="M465.86,318.00 L511.51,318.00 L511.51,330.80 L482.78,330.80 L482.78,343.00 L509.81,343.00 L509.81,355.80 L482.78,355.80 L482.78,370.83 L512.48,370.83 L512.48,383.62 L465.86,383.62 L465.86,318.00 Z" fill="#2C6FB7" stroke="none"/>
<path d="M516.08,318.00 L533.09,318.00 L550.49,366.43 L567.86,318.00 L584.86,318.00 L560.56,383.62 L540.38,383.62 L516.08,318.00 Z" fill="#F7F3EA" stroke="none"/>
<path d="M588.46,318.00 L634.11,318.00 L634.11,330.80 L605.38,330.80 L605.38,343.00 L632.40,343.00 L632.40,355.80 L605.38,355.80 L605.38,370.83 L635.08,370.83 L635.08,383.62 L588.46,383.62 L588.46,318.00 Z" fill="#2C6FB7" stroke="none"/>
<path d="M638.68,318.00 L657.56,318.00 L681.43,363.00 L681.43,318.00 L697.47,318.00 L697.47,383.62 L678.57,383.62 L654.71,338.62 L654.71,383.62 L638.68,383.62 L638.68,318.00 Z" fill="#F7F3EA" stroke="none"/>
<path d="M701.07,318.00 L717.99,318.00 L717.99,383.62 L701.07,383.62 L701.07,318.00 Z" fill="#2C6FB7" stroke="none"/>
<path d="M721.59,318.00 L740.47,318.00 L764.34,363.00 L764.34,318.00 L780.38,318.00 L780.38,383.62 L761.48,383.62 L737.62,338.62 L737.62,383.62 L721.59,383.62 L721.59,318.00 Z" fill="#F7F3EA" stroke="none"/>
<path d="M846.73,379.92 Q840.40,383.00 833.60,384.54 Q826.79,386.08 819.53,386.08 Q803.14,386.08 793.56,376.91 Q783.98,367.74 783.98,352.06 Q783.98,336.20 793.73,327.10 Q803.49,318.00 820.46,318.00 Q827.00,318.00 832.99,319.24 Q839.00,320.46 844.31,322.88 L844.31,336.45 Q838.83,333.34 833.40,331.81 Q827.97,330.26 822.51,330.26 Q812.42,330.26 806.95,335.92 Q801.48,341.55 801.48,352.06 Q801.48,362.47 806.75,368.15 Q812.02,373.81 821.73,373.81 Q824.37,373.81 826.64,373.49 Q828.90,373.15 830.70,372.45 L830.70,359.71 L820.36,359.71 L820.36,348.36 L846.73,348.36 L846.73,379.92 Z" fill="#2C6FB7" stroke="none"/>
<path d="M854.72,318.00 L870.54,318.00 L870.54,331.40 L859.68,347.78 L850.33,347.78 L854.72,331.40 L854.72,318.00 Z" fill="#F7F3EA" stroke="none"/>
<path d="M486.70,501.38 Q494.26,501.38 497.54,498.58 Q500.82,495.76 500.82,489.32 Q500.82,482.94 497.54,480.20 Q494.26,477.44 486.70,477.44 L476.58,477.44 L476.58,501.38 L486.70,501.38 Z M476.58,518.00 L476.58,553.32 L452.52,553.32 L452.52,460.00 L489.26,460.00 Q507.70,460.00 516.28,466.20 Q524.88,472.38 524.88,485.76 Q524.88,495.00 520.40,500.94 Q515.94,506.88 506.94,509.70 Q511.88,510.82 515.78,514.80 Q519.70,518.76 523.70,526.82 L536.76,553.32 L511.14,553.32 L499.76,530.14 Q496.32,523.14 492.78,520.58 Q489.26,518.00 483.38,518.00 L476.58,518.00 Z" fill="#EF3E23" stroke="none"/>
<path d="M542.52,460.00 L566.58,460.00 L566.58,495.56 L602.08,495.56 L602.08,460.00 L626.14,460.00 L626.14,553.32 L602.08,553.32 L602.08,513.76 L566.58,513.76 L566.58,553.32 L542.52,553.32 L542.52,460.00 Z" fill="#84C341" stroke="none"/>
<path d="M631.90,460.00 L696.82,460.00 L696.82,478.20 L655.96,478.20 L655.96,495.56 L694.40,495.56 L694.40,513.76 L655.96,513.76 L655.96,535.14 L698.20,535.14 L698.20,553.32 L631.90,553.32 L631.90,460.00 Z" fill="#F7F3EA" stroke="none"/>
<path d="M703.96,460.00 L789.96,460.00 L789.96,478.20 L759.02,478.20 L759.02,553.32 L734.96,553.32 L734.96,478.20 L703.96,478.20 L703.96,460.00 Z" fill="#FF7A00" stroke="none"/>
<path d="M795.72,460.00 L881.72,460.00 L881.72,478.20 L850.78,478.20 L850.78,553.32 L826.72,553.32 L826.72,478.20 L795.72,478.20 L795.72,460.00 Z" fill="#FFD329" stroke="none"/>
<line x1="252" y1="560" x2="276" y2="553" stroke="#FF7A00" stroke-width="10" stroke-linecap="round"/>
<line x1="280" y1="564" x2="304" y2="557" stroke="#14BCEB" stroke-width="10" stroke-linecap="round"/>
<line x1="308" y1="560" x2="332" y2="553" stroke="#FFD329" stroke-width="10" stroke-linecap="round"/>
<line x1="805" y1="560" x2="829" y2="553" stroke="#14BCEB" stroke-width="10" stroke-linecap="round"/>
<line x1="833" y1="564" x2="857" y2="557" stroke="#FF7A00" stroke-width="10" stroke-linecap="round"/>
<line x1="861" y1="560" x2="885" y2="553" stroke="#FFD329" stroke-width="10" stroke-linecap="round"/>
<path d="M210.0,580.0 L415.0,592.0 L710.0,586.0 L995.0,575.0" stroke="#111111" stroke-width="12" stroke-linecap="round"/>
<circle cx="223" cy="126" r="3.8" fill="#F7F3EA" />
<circle cx="256" cy="119" r="3.8" fill="#F7F3EA" />
<circle cx="964" cy="203" r="3.8" fill="#F7F3EA" />
<circle cx="981" cy="182" r="3.8" fill="#F7F3EA" />
<circle cx="1021" cy="226" r="3.8" fill="#F7F3EA" />
<circle cx="188" cy="377" r="3.8" fill="#F7F3EA" />
<circle cx="196" cy="420" r="3.8" fill="#F7F3EA" />
<circle cx="1030" cy="386" r="3.8" fill="#F7F3EA" />
<line x1="214" y1="333" x2="180" y2="344" stroke="#FFD329" stroke-width="9" stroke-linecap="round"/>
<line x1="220" y1="356" x2="172" y2="370" stroke="#14BCEB" stroke-width="9" stroke-linecap="round"/>
<line x1="226" y1="382" x2="183" y2="398" stroke="#FF7A00" stroke-width="9" stroke-linecap="round"/>
<line x1="955" y1="247" x2="1005" y2="247" stroke="#FFD329" stroke-width="9" stroke-linecap="round"/>
<line x1="958" y1="273" x2="1008" y2="271" stroke="#14BCEB" stroke-width="9" stroke-linecap="round"/>
<line x1="963" y1="299" x2="1002" y2="308" stroke="#FF7A00" stroke-width="9" stroke-linecap="round"/>
</svg>