<svg xmlns="http://www.w3.org/2000/svg" width="1200" height="700" viewBox="0 0 1200 700" fill="none">
<defs>
<filter id="roughShadow" x="-10%" y="-10%" width="130%" height="130%"><feDropShadow dx="0" dy="2" stdDeviation="2" flood-color="#000000" flood-opacity="0.08"/></filter>
</defs>
<path d="M230.0,115.6 L298.3,134.9 L366.7,132.6 L435.0,118.9 L503.3,125.4 L571.7,124.1 L640.0,129.6 L708.3,133.3 L776.7,114.5 L845.0,112.8 L913.3,134.6 L981.7,123.7 L1050.0,132.6 L1041.1,208.0 L1053.0,286.0 L1060.5,364.0 L1047.2,442.0 L1050.0,536.5 L981.7,535.3 L913.3,511.8 L845.0,511.7 L776.7,525.6 L708.3,536.4 L640.0,521.3 L571.7,516.8 L503.3,522.4 L435.0,511.8 L366.7,517.0 L298.3,522.8 L230.0,524.4 L218.3,442.0 L218.2,364.0 L217.9,286.0 L224.4,208.0 Z" fill="#111111" filter="url(#roughShadow)"/>
<path d="M290.0,520.0 L286.0,544.0 L294.0,578.0" stroke="#111111" stroke-width="10" stroke-linecap="round"/>
<path d="M940.0,515.0 L940.0,546.0 L948.0,574.0" stroke="#111111" stroke-width="12" stroke-linecap="round"/>
<path d="M110.0,212.5 Q213.5,155.0 317.0,212.5 Q213.5,270.0 110.0,212.5 Z" fill="#F7F3EA" stroke="#111111" stroke-width="14" stroke-linejoin="round"/>
<line x1="127.2" y1="145.8" x2="133.0" y2="164.2" stroke="#FFD329" stroke-width="11" stroke-linecap="round"/>
<line x1="156.0" y1="140.1" x2="161.8" y2="164.2" stroke="#FFD329" stroke-width="11" stroke-linecap="round"/>
<line x1="188.2" y1="145.8" x2="193.9" y2="164.2" stroke="#FFD329" stroke-width="11" stroke-linecap="round"/>
<line x1="220.4" y1="140.1" x2="226.1" y2="164.2" stroke="#FFD329" stroke-width="11" stroke-linecap="round"/>
<line x1="252.6" y1="145.8" x2="258.4" y2="164.2" stroke="#FFD329" stroke-width="11" stroke-linecap="round"/>
<line x1="282.5" y1="140.1" x2="288.2" y2="164.2" stroke="#FFD329" stroke-width="11" stroke-linecap="round"/>
<circle cx="215.8" cy="212.5" r="27.6" fill="#14BCEB" stroke="#111111" stroke-width="10"/>
<circle cx="215.8" cy="212.5" r="11.5" fill="#111111"/>
<line x1="207.8" y1="204.5" x2="223.8" y2="220.5" stroke="#14BCEB" stroke-width="4" stroke-linecap="round"/>
<line x1="223.8" y1="204.5" x2="207.8" y2="220.5" stroke="#14BCEB" stroke-width="4" stroke-linecap="round"/>
<path d="M185.0,268.0 C177.0,285.0 178.0,300.0 185.0,312.0 C195.0,298.0 194.0,283.0 185.0,268.0 Z" fill="#EF3E23"/>
<path d="M225.0,268.0 C217.0,285.0 218.0,300.0 225.0,312.0 C235.0,298.0 234.0,283.0 225.0,268.0 Z" fill="#FF7A00"/>
<path d="M264.0,268.0 C256.0,285.0 257.0,300.0 264.0,312.0 C274.0,298.0 273.0,283.0 264.0,268.0 Z" fill="#EF3E23"/>
<path d="M770.0,196.0 L780.0,128.0 L812.9,158.6 L837.6,118.0 L863.6,157.0 L890.0,132.0 L900.0,196.0" fill="#FFD329" stroke="#111111" stroke-width="12" stroke-linejoin="round" stroke-linecap="round"/>
<line x1="734.0" y1="126.0" x2="746.0" y2="126.0" stroke="#FFD329" stroke-width="6" stroke-linecap="round"/>
<line x1="728.7" y1="138.7" x2="737.2" y2="147.2" stroke="#FFD329" stroke-width="6" stroke-linecap="round"/>
<line x1="716.0" y1="144.0" x2="716.0" y2="156.0" stroke="#FFD329" stroke-width="6" stroke-linecap="round"/>
<line x1="703.3" y1="138.7" x2="694.8" y2="147.2" stroke="#FFD329" stroke-width="6" stroke-linecap="round"/>
<line x1="698.0" y1="126.0" x2="686.0" y2="126.0" stroke="#FFD329" stroke-width="6" stroke-linecap="round"/>
<line x1="703.3" y1="113.3" x2="694.8" y2="104.8" stroke="#FFD329" stroke-width="6" stroke-linecap="round"/>
<line x1="716.0" y1="108.0" x2="716.0" y2="96.0" stroke="#FFD329" stroke-width="6" stroke-linecap="round"/>
<line x1="728.7" y1="113.3" x2="737.2" y2="104.8" stroke="#FFD329" stroke-width="6" stroke-linecap="round"/>
<circle cx="716" cy="126" r="15" fill="#FFD329" stroke="#111111" stroke-width="5"/>
<path d="M609.20,264.53 Q604.14,267.00 598.70,268.24 Q593.25,269.46 587.45,269.46 Q574.33,269.46 566.67,262.13 Q559.01,254.79 559.01,242.25 Q559.01,229.56 566.80,222.28 Q574.61,215.00 588.19,215.00 Q593.42,215.00 598.21,215.99 Q603.02,216.97 607.27,218.90 L607.27,229.76 Q602.88,227.27 598.54,226.05 Q594.20,224.81 589.83,224.81 Q581.75,224.81 577.38,229.33 Q573.00,233.84 573.00,242.25 Q573.00,250.57 577.22,255.12 Q581.44,259.65 589.20,259.65 Q591.32,259.65 593.13,259.39 Q594.94,259.12 596.38,258.56 L596.38,248.37 L588.11,248.37 L588.11,239.29 L609.20,239.29 L609.20,264.53 Z" fill="#FF7A00" stroke="none"/>
<path d="M639.80,224.81 Q633.62,224.81 630.21,229.38 Q626.80,233.94 626.80,242.25 Q626.80,250.50 630.21,255.08 Q633.62,259.65 639.80,259.65 Q646.03,259.65 649.43,255.08 Q652.84,250.50 652.84,242.25 Q652.84,233.94 649.43,229.38 Q646.03,224.81 639.80,224.81 Z M639.80,215.00 Q652.46,215.00 659.63,222.25 Q666.80,229.48 666.80,242.25 Q666.80,254.97 659.63,262.22 Q652.46,269.46 639.80,269.46 Q627.18,269.46 619.99,262.22 Q612.80,254.97 612.80,242.25 Q612.80,229.48 619.99,222.25 Q627.18,215.00 639.80,215.00 Z" fill="#FFD329" stroke="none"/>
<path d="M697.40,224.81 Q691.22,224.81 687.81,229.38 Q684.40,233.94 684.40,242.25 Q684.40,250.50 687.81,255.08 Q691.22,259.65 697.40,259.65 Q703.63,259.65 707.03,255.08 Q710.44,250.50 710.44,242.25 Q710.44,233.94 707.03,229.38 Q703.63,224.81 697.40,224.81 Z M697.40,215.00 Q710.06,215.00 717.23,222.25 Q724.40,229.48 724.40,242.25 Q724.40,254.97 717.23,262.22 Q710.06,269.46 697.40,269.46 Q684.78,269.46 677.59,262.22 Q670.40,254.97 670.40,242.25 Q670.40,229.48 677.59,222.25 Q684.78,215.00 697.40,215.00 Z" fill="#FF7A00" stroke="none"/>
<path d="M741.54,225.24 L741.54,257.27 L746.39,257.27 Q754.68,257.27 759.05,253.15 Q763.44,249.03 763.44,241.19 Q763.44,233.39 759.08,229.32 Q754.72,225.24 746.39,225.24 L741.54,225.24 Z M728.00,215.00 L742.27,215.00 Q754.23,215.00 760.08,216.71 Q765.93,218.41 770.11,222.49 Q773.80,226.05 775.59,230.69 Q777.39,235.33 777.39,241.19 Q777.39,247.14 775.59,251.80 Q773.80,256.46 770.11,260.00 Q765.89,264.08 759.99,265.79 Q754.08,267.49 742.27,267.49 L728.00,267.49 L728.00,215.00 Z" fill="#FFD329" stroke="none"/>
<path d="M447.01,318.00 L468.54,318.00 L483.48,353.11 L498.51,318.00 L520.00,318.00 L520.00,383.62 L504.01,383.62 L504.01,335.62 L488.89,371.00 L478.16,371.00 L463.04,335.62 L463.04,383.62 L447.01,383.62 L447.01,318.00 Z" fill="#FFD329" stroke="none"/>
<path d="M557.35,330.26 Q549.61,330.26 545.35,335.97 Q541.09,341.68 541.09,352.06 Q541.09,362.38 545.35,368.10 Q549.61,373.81 557.35,373.81 Q565.12,373.81 569.38,368.10 Q573.64,362.38 573.64,352.06 Q573.64,341.68 569.38,335.97 Q565.12,330.26 557.35,330.26 Z M557.35,318.00 Q573.17,318.00 582.12,327.06 Q591.10,336.10 591.10,352.06 Q591.10,367.96 582.12,377.02 Q573.17,386.08 557.35,386.08 Q541.57,386.08 532.58,377.02 Q523.60,367.96 523.60,352.06 Q523.60,336.10 532.58,327.06 Q541.57,318.00 557.35,318.00 Z" fill="#FF7A00" stroke="none"/>
<path d="M618.73,347.10 Q624.04,347.10 626.35,345.13 Q628.66,343.14 628.66,338.62 Q628.66,334.13 626.35,332.20 Q624.04,330.26 618.73,330.26 L611.61,330.26 L611.61,347.10 L618.73,347.10 Z M611.61,358.78 L611.61,383.62 L594.70,383.62 L594.70,318.00 L620.53,318.00 Q633.49,318.00 639.53,322.36 Q645.57,326.70 645.57,336.11 Q645.57,342.61 642.42,346.79 Q639.29,350.96 632.96,352.95 Q636.43,353.73 639.18,356.53 Q641.93,359.32 644.74,364.98 L653.93,383.62 L635.91,383.62 L627.91,367.32 Q625.49,362.40 623.00,360.60 Q620.53,358.78 616.39,358.78 L611.61,358.78 Z" fill="#FFD329" stroke="none"/>
<path d="M657.53,318.00 L676.41,318.00 L700.28,363.00 L700.28,318.00 L716.32,318.00 L716.32,383.62 L697.42,383.62 L673.56,338.62 L673.56,383.62 L657.53,383.62 L657.53,318.00 Z" fill="#FF7A00" stroke="none"/>
<path d="M719.92,318.00 L736.84,318.00 L736.84,383.62 L719.92,383.62 L719.92,318.00 Z" fill="#FFD329" stroke="none"/>
<path d="M740.44,318.00 L759.33,318.00 L783.19,363.00 L783.19,318.00 L799.23,318.00 L799.23,383.62 L780.33,383.62 L756.47,338.62 L756.47,383.62 L740.44,383.62 L740.44,318.00 Z" fill="#FF7A00" stroke="none"/>
<path d="M865.58,379.92 Q859.25,383.00 852.45,384.54 Q845.64,386.08 838.38,386.08 Q821.99,386.08 812.41,376.91 Q802.83,367.74 802.83,352.06 Q802.83,336.20 812.58,327.10 Q822.34,318.00 839.31,318.00 Q845.85,318.00 851.84,319.24 Q857.85,320.46 863.16,322.88 L863.16,336.45 Q857.68,333.34 852.25,331.81 Q846.82,330.26 841.37,330.26 Q831.27,330.26 825.80,335.92 Q820.33,341.55 820.33,352.06 Q820.33,362.47 825.60,368.15 Q830.88,373.81 840.58,373.81 Q843.22,373.81 845.49,373.49 Q847.75,373.15 849.55,372.45 L849.55,359.71 L839.21,359.71 L839.21,348.36 L865.58,348.36 L865.58,379.92 Z" fill="#FFD329" stroke="none"/>
<path d="M873.57,318.00 L889.39,318.00 L889.39,331.40 L878.53,347.78 L869.18,347.78 L873.57,331.40 L873.57,318.00 Z" fill="#FF7A00" stroke="none"/>
<path d="M486.70,501.38 Q494.26,501.38 497.54,498.58 Q500.82,495.76 500.82,489.32 Q500.82,482.94 497.54,480.20 Q494.26,477.44 486.70,477.44 L476.58,477.44 L476.58,501.38 L486.70,501.38 Z M476.58,518.00 L476.58,553.32 L452.52,553.32 L452.52,460.00 L489.26,460.00 Q507.70,460.00 516.28,466.20 Q524.88,472.38 524.88,485.76 Q524.88,495.00 520.40,500.94 Q515.94,506.88 506.94,509.70 Q511.88,510.82 515.78,514.80 Q519.70,518.76 523.70,526.82 L536.76,553.32 L511.14,553.32 L499.76,530.14 Q496.32,523.14 492.78,520.58 Q489.26,518.00 483.38,518.00 L476.58,518.00 Z" fill="#EF3E23" stroke="none"/>
<path d="M542.52,460.00 L566.58,460.00 L566.58,495.56 L602.08,495.56 L602.08,460.00 L626.14,460.00 L626.14,553.32 L602.08,553.32 L602.08,513.76 L566.58,513.76 L566.58,553.32 L542.52,553.32 L542.52,460.00 Z" fill="#84C341" stroke="none"/>
<path d="M631.90,460.00 L696.82,460.00 L696.82,478.20 L655.96,478.20 L655.96,495.56 L694.40,495.56 L694.40,513.76 L655.96,513.76 L655.96,535.14 L698.20,535.14 L698.20,553.32 L631.90,553.32 L631.90,460.00 Z" fill="#F7F3EA" stroke="none"/>
<path d="M703.96,460.00 L789.96,460.00 L789.96,478.20 L759.02,478.20 L759.02,553.32 L734.96,553.32 L734.96,478.20 L703.96,478.20 L703.96,460.00 Z" fill="#FF7A00" stroke="none"/>
<path d="M795.72,460.00 L881.72,460.00 L881.72,478.20 L850.78,478.20 L850.78,553.32 L826.72,553.32 L826.72,478.20 L795.72,478.20 L795.72,460.00 Z" fill="#FFD329" stroke="none"/>
<line x1="252" y1="560" x2="276" y2="553" stroke="#FFD329" stroke-width="10" stroke-linecap="round"/>
<line x1="280" y1="564" x2="304" y2="557" stroke="#14BCEB" stroke-width="10" stroke-linecap="round"/>
<line x1="308" y1="560" x2="332" y2="553" stroke="#FF7A00" stroke-width="10" stroke-linecap="round"/>
<line x1="805" y1="560" x2="829" y2="553" stroke="#14BCEB" stroke-width="10" stroke-linecap="round"/>
<line x1="833" y1="564" x2="857" y2="557" stroke="#FF7A00" stroke-width="10" stroke-linecap="round"/>
<line x1="861" y1="560" x2="885" y2="553" stroke="#FFD329" stroke-width="10" stroke-linecap="round"/>
<path d="M210.0,580.0 L415.0,592.0 L710.0,586.0 L995.0,575.0" stroke="#111111" stroke-width="12" stroke-linecap="round"/>
<circle cx="223" cy="126" r="3.8" fill="#FFD329" />
<circle cx="256" cy="119" r="3.8" fill="#FFD329" />
<circle cx="964" cy="203" r="3.8" fill="#FFD329" />
<circle cx="981" cy="182" r="3.8" fill="#FFD329" />
<circle cx="1021" cy="226" r="3.8" fill="#FFD329" />
<circle cx="188" cy="377" r="3.8" fill="#FFD329" />
<circle cx="196" cy="420" r="3.8" fill="#FFD329" />
<circle cx="1030" cy="386" r="3.8" fill="#FFD329" />
<line x1="214" y1="333" x2="180" y2="344" stroke="#FFD329" stroke-width="9" stroke-linecap="round"/>
<line x1="220" y1="356" x2="172" y2="370" stroke="#14BCEB" stroke-width="9" stroke-linecap="round"/>
<line x1="226" y1="382" x2="183" y2="398" stroke="#FF7A00" stroke-width="9" stroke-linecap="round"/>
<line x1="955" y1="247" x2="1005" y2="247" stroke="#FFD329" stroke-width="9" stroke-linecap="round"/>
<line x1="958" y1="273" x2="1008" y2="271" stroke="#14BCEB" stroke-width="9" stroke-linecap="round"/>
<line x1="963" y1="299" x2="1002" y2="308" stroke="#FF7A00" stroke-width="9" stroke-linecap="round"/>
</svg>