<svg xmlns="http://www.w3.org/2000/svg" width="1200" height="700" viewBox="0 0 1200 700" fill="none">
<defs>
<filter id="roughShadow" x="-10%" y="-10%" width="130%" height="130%"><feDropShadow dx="0" dy="2" stdDeviation="2" flood-color="#000000" flood-opacity="0.08"/></filter>
</defs>
<path d="M230.0,137.8 L298.3,137.6 L366.7,113.5 L435.0,114.3 L503.3,134.6 L571.7,131.9 L640.0,130.1 L708.3,120.3 L776.7,128.4 L845.0,128.4 L913.3,127.7 L981.7,116.3 L1050.0,123.6 L1051.6,208.0 L1060.5,286.0 L1067.9,364.0 L1066.6,442.0 L1050.0,525.7 L981.7,523.0 L913.3,518.2 L845.0,512.0 L776.7,511.7 L708.3,523.6 L640.0,519.6 L571.7,521.3 L503.3,535.1 L435.0,525.2 L366.7,526.1 L298.3,517.4 L230.0,511.6 L220.8,442.0 L215.7,364.0 L225.8,286.0 L239.0,208.0 Z" fill="#111111" filter="url(#roughShadow)"/>
<path d="M290.0,520.0 L286.0,544.0 L294.0,578.0" stroke="#111111" stroke-width="10" stroke-linecap="round"/>
<path d="M940.0,515.0 L940.0,546.0 L948.0,574.0" stroke="#111111" stroke-width="12" stroke-linecap="round"/>
<path d="M110.0,212.5 Q213.5,155.0 317.0,212.5 Q213.5,270.0 110.0,212.5 Z" fill="#F7F3EA" stroke="#111111" stroke-width="14" stroke-linejoin="round"/>
<line x1="127.2" y1="145.8" x2="133.0" y2="164.2" stroke="#FFD329" stroke-width="11" stroke-linecap="round"/>
<line x1="156.0" y1="140.1" x2="161.8" y2="164.2" stroke="#FFD329" stroke-width="11" stroke-linecap="round"/>
<line x1="188.2" y1="145.8" x2="193.9" y2="164.2" stroke="#FFD329" stroke-width="11" stroke-linecap="round"/>
<line x1="220.4" y1="140.1" x2="226.1" y2="164.2" stroke="#FFD329" stroke-width="11" stroke-linecap="round"/>
<line x1="252.6" y1="145.8" x2="258.4" y2="164.2" stroke="#FFD329" stroke-width="11" stroke-linecap="round"/>
<line x1="282.5" y1="140.1" x2="288.2" y2="164.2" stroke="#FFD329" stroke-width="11" stroke-linecap="round"/>
<circle cx="215.8" cy="212.5" r="27.6" fill="#14BCEB" stroke="#111111" stroke-width="10"/>
<circle cx="215.8" cy="212.5" r="11.5" fill="#111111"/>
<path d="M185.0,268.0 C177.0,285.0 178.0,300.0 185.0,312.0 C195.0,298.0 194.0,283.0 185.0,268.0 Z" fill="#EF3E23"/>
<path d="M225.0,268.0 C217.0,285.0 218.0,300.0 225.0,312.0 C235.0,298.0 234.0,283.0 225.0,268.0 Z" fill="#FF7A00"/>
<path d="M264.0,268.0 C256.0,285.0 257.0,300.0 264.0,312.0 C274.0,298.0 273.0,283.0 264.0,268.0 Z" fill="#EF3E23"/>
<path d="M770.0,196.0 L780.0,128.0 L812.9,158.6 L837.6,118.0 L863.6,157.0 L890.0,132.0 L900.0,196.0" fill="#FFD329" stroke="#111111" stroke-width="12" stroke-linejoin="round" stroke-linecap="round"/>
<path d="M707.0,95.0 L723.2,95.0 L711.5,118.4 L726.8,118.4 L705.2,150.8 L712.4,125.6 L698.0,125.6 Z" fill="#FFD329" stroke="#111111" stroke-width="6" stroke-linejoin="round"/>
<path d="M609.20,264.53 Q604.14,267.00 598.70,268.24 Q593.25,269.46 587.45,269.46 Q574.33,269.46 566.67,262.13 Q559.01,254.79 559.01,242.25 Q559.01,229.56 566.80,222.28 Q574.61,215.00 588.19,215.00 Q593.42,215.00 598.21,215.99 Q603.02,216.97 607.27,218.90 L607.27,229.76 Q602.88,227.27 598.54,226.05 Q594.20,224.81 589.83,224.81 Q581.75,224.81 577.38,229.33 Q573.00,233.84 573.00,242.25 Q573.00,250.57 577.22,255.12 Q581.44,259.65 589.20,259.65 Q591.32,259.65 593.13,259.39 Q594.94,259.12 596.38,258.56 L596.38,248.37 L588.11,248.37 L588.11,239.29 L609.20,239.29 L609.20,264.53 Z" fill="#FF7A00" stroke="none"/>
<path d="M639.80,224.81 Q633.62,224.81 630.21,229.38 Q626.80,233.94 626.80,242.25 Q626.80,250.50 630.21,255.08 Q633.62,259.65 639.80,259.65 Q646.03,259.65 649.43,255.08 Q652.84,250.50 652.84,242.25 Q652.84,233.94 649.43,229.38 Q646.03,224.81 639.80,224.81 Z M639.80,215.00 Q652.46,215.00 659.63,222.25 Q666.80,229.48 666.80,242.25 Q666.80,254.97 659.63,262.22 Q652.46,269.46 639.80,269.46 Q627.18,269.46 619.99,262.22 Q612.80,254.97 612.80,242.25 Q612.80,229.48 619.99,222.25 Q627.18,215.00 639.80,215.00 Z" fill="#FFD329" stroke="none"/>
<path d="M697.40,224.81 Q691.22,224.81 687.81,229.38 Q684.40,233.94 684.40,242.25 Q684.40,250.50 687.81,255.08 Q691.22,259.65 697.40,259.65 Q703.63,259.65 707.03,255.08 Q710.44,250.50 710.44,242.25 Q710.44,233.94 707.03,229.38 Q703.63,224.81 697.40,224.81 Z M697.40,215.00 Q710.06,215.00 717.23,222.25 Q724.40,229.48 724.40,242.25 Q724.40,254.97 717.23,262.22 Q710.06,269.46 697.40,269.46 Q684.78,269.46 677.59,262.22 Q670.40,254.97 670.40,242.25 Q670.40,229.48 677.59,222.25 Q684.78,215.00 697.40,215.00 Z" fill="#FF7A00" stroke="none"/>
<path d="M741.54,225.24 L741.54,257.27 L746.39,257.27 Q754.68,257.27 759.05,253.15 Q763.44,249.03 763.44,241.19 Q763.44,233.39 759.08,229.32 Q754.72,225.24 746.39,225.24 L741.54,225.24 Z M728.00,215.00 L742.27,215.00 Q754.23,215.00 760.08,216.71 Q765.93,218.41 770.11,222.49 Q773.80,226.05 775.59,230.69 Q777.39,235.33 777.39,241.19 Q777.39,247.14 775.59,251.80 Q773.80,256.46 770.11,260.00 Q765.89,264.08 759.99,265.79 Q754.08,267.49 742.27,267.49 L728.00,267.49 L728.00,215.00 Z" fill="#FFD329" stroke="none"/>
<path d="M422.87,371.66 L396.42,371.66 L392.24,383.62 L375.23,383.62 L399.53,318.00 L419.71,318.00 L444.01,383.62 L427.01,383.62 L422.87,371.66 Z M400.64,359.48 L418.61,359.48 L409.64,333.38 L400.64,359.48 Z" fill="#FF7A00" stroke="none"/>
<path d="M447.61,318.00 L493.26,318.00 L493.26,330.80 L464.53,330.80 L464.53,343.00 L491.55,343.00 L491.55,355.80 L464.53,355.80 L464.53,383.62 L447.61,383.62 L447.61,318.00 Z" fill="#FFD329" stroke="none"/>
<path d="M496.86,318.00 L557.32,318.00 L557.32,330.80 L535.57,330.80 L535.57,383.62 L518.65,383.62 L518.65,330.80 L496.86,330.80 L496.86,318.00 Z" fill="#FF7A00" stroke="none"/>
<path d="M560.92,318.00 L606.57,318.00 L606.57,330.80 L577.84,330.80 L577.84,343.00 L604.87,343.00 L604.87,355.80 L577.84,355.80 L577.84,370.83 L607.54,370.83 L607.54,383.62 L560.92,383.62 L560.92,318.00 Z" fill="#FFD329" stroke="none"/>
<path d="M635.17,347.10 Q640.49,347.10 642.80,345.13 Q645.10,343.14 645.10,338.62 Q645.10,334.13 642.80,332.20 Q640.49,330.26 635.17,330.26 L628.06,330.26 L628.06,347.10 L635.17,347.10 Z M628.06,358.78 L628.06,383.62 L611.14,383.62 L611.14,318.00 L636.97,318.00 Q649.94,318.00 655.97,322.36 Q662.02,326.70 662.02,336.11 Q662.02,342.61 658.87,346.79 Q655.73,350.96 649.41,352.95 Q652.88,353.73 655.62,356.53 Q658.38,359.32 661.19,364.98 L670.37,383.62 L652.36,383.62 L644.36,367.32 Q641.94,362.40 639.45,360.60 Q636.97,358.78 632.84,358.78 L628.06,358.78 Z" fill="#FF7A00" stroke="none"/>
<path d="M673.97,318.00 L692.86,318.00 L716.72,363.00 L716.72,318.00 L732.77,318.00 L732.77,383.62 L713.87,383.62 L690.00,338.62 L690.00,383.62 L673.97,383.62 L673.97,318.00 Z" fill="#FFD329" stroke="none"/>
<path d="M770.12,330.26 Q762.38,330.26 758.12,335.97 Q753.86,341.68 753.86,352.06 Q753.86,362.38 758.12,368.10 Q762.38,373.81 770.12,373.81 Q777.89,373.81 782.16,368.10 Q786.42,362.38 786.42,352.06 Q786.42,341.68 782.16,335.97 Q777.89,330.26 770.12,330.26 Z M770.12,318.00 Q785.94,318.00 794.90,327.06 Q803.87,336.10 803.87,352.06 Q803.87,367.96 794.90,377.02 Q785.94,386.08 770.12,386.08 Q754.34,386.08 745.35,377.02 Q736.37,367.96 736.37,352.06 Q736.37,336.10 745.35,327.06 Q754.34,318.00 770.12,318.00 Z" fill="#FF7A00" stroke="none"/>
<path d="M841.22,330.26 Q833.48,330.26 829.22,335.97 Q824.96,341.68 824.96,352.06 Q824.96,362.38 829.22,368.10 Q833.48,373.81 841.22,373.81 Q848.99,373.81 853.26,368.10 Q857.52,362.38 857.52,352.06 Q857.52,341.68 853.26,335.97 Q848.99,330.26 841.22,330.26 Z M841.22,318.00 Q857.04,318.00 866.00,327.06 Q874.97,336.10 874.97,352.06 Q874.97,367.96 866.00,377.02 Q857.04,386.08 841.22,386.08 Q825.44,386.08 816.45,377.02 Q807.47,367.96 807.47,352.06 Q807.47,336.10 816.45,327.06 Q825.44,318.00 841.22,318.00 Z" fill="#FFD329" stroke="none"/>
<path d="M878.57,318.00 L897.45,318.00 L921.32,363.00 L921.32,318.00 L937.36,318.00 L937.36,383.62 L918.46,383.62 L894.60,338.62 L894.60,383.62 L878.57,383.62 L878.57,318.00 Z" fill="#FF7A00" stroke="none"/>
<path d="M945.35,318.00 L961.17,318.00 L961.17,331.40 L950.31,347.78 L940.96,347.78 L945.35,331.40 L945.35,318.00 Z" fill="#FFD329" stroke="none"/>
<path d="M486.70,501.38 Q494.26,501.38 497.54,498.58 Q500.82,495.76 500.82,489.32 Q500.82,482.94 497.54,480.20 Q494.26,477.44 486.70,477.44 L476.58,477.44 L476.58,501.38 L486.70,501.38 Z M476.58,518.00 L476.58,553.32 L452.52,553.32 L452.52,460.00 L489.26,460.00 Q507.70,460.00 516.28,466.20 Q524.88,472.38 524.88,485.76 Q524.88,495.00 520.40,500.94 Q515.94,506.88 506.94,509.70 Q511.88,510.82 515.78,514.80 Q519.70,518.76 523.70,526.82 L536.76,553.32 L511.14,553.32 L499.76,530.14 Q496.32,523.14 492.78,520.58 Q489.26,518.00 483.38,518.00 L476.58,518.00 Z" fill="#EF3E23" stroke="none"/>
<path d="M542.52,460.00 L566.58,460.00 L566.58,495.56 L602.08,495.56 L602.08,460.00 L626.14,460.00 L626.14,553.32 L602.08,553.32 L602.08,513.76 L566.58,513.76 L566.58,553.32 L542.52,553.32 L542.52,460.00 Z" fill="#84C341" stroke="none"/>
<path d="M631.90,460.00 L696.82,460.00 L696.82,478.20 L655.96,478.20 L655.96,495.56 L694.40,495.56 L694.40,513.76 L655.96,513.76 L655.96,535.14 L698.20,535.14 L698.20,553.32 L631.90,553.32 L631.90,460.00 Z" fill="#F7F3EA" stroke="none"/>
<path d="M703.96,460.00 L789.96,460.00 L789.96,478.20 L759.02,478.20 L759.02,553.32 L734.96,553.32 L734.96,478.20 L703.96,478.20 L703.96,460.00 Z" fill="#FF7A00" stroke="none"/>
<path d="M795.72,460.00 L881.72,460.00 L881.72,478.20 L850.78,478.20 L850.78,553.32 L826.72,553.32 L826.72,478.20 L795.72,478.20 L795.72,460.00 Z" fill="#FFD329" stroke="none"/>
<line x1="252" y1="560" x2="276" y2="553" stroke="#FF7A00" stroke-width="10" stroke-linecap="round"/>
<line x1="280" y1="564" x2="304" y2="557" stroke="#14BCEB" stroke-width="10" stroke-linecap="round"/>
<line x1="308" y1="560" x2="332" y2="553" stroke="#FFD329" stroke-width="10" stroke-linecap="round"/>
<line x1="805" y1="560" x2="829" y2="553" stroke="#14BCEB" stroke-width="10" stroke-linecap="round"/>
<line x1="833" y1="564" x2="857" y2="557" stroke="#FF7A00" stroke-width="10" stroke-linecap="round"/>
<line x1="861" y1="560" x2="885" y2="553" stroke="#FFD329" stroke-width="10" stroke-linecap="round"/>
<path d="M210.0,580.0 L415.0,592.0 L710.0,586.0 L995.0,575.0" stroke="#111111" stroke-width="12" stroke-linecap="round"/>
<circle cx="223" cy="126" r="3.8" fill="#FFD329" />
<circle cx="256" cy="119" r="3.8" fill="#FFD329" />
<circle cx="964" cy="203" r="3.8" fill="#FFD329" />
<circle cx="981" cy="182" r="3.8" fill="#FFD329" />
<circle cx="1021" cy="226" r="3.8" fill="#FFD329" />
<circle cx="188" cy="377" r="3.8" fill="#FFD329" />
<circle cx="196" cy="420" r="3.8" fill="#FFD329" />
<circle cx="1030" cy="386" r="3.8" fill="#FFD329" />
<line x1="214" y1="333" x2="180" y2="344" stroke="#FFD329" stroke-width="9" stroke-linecap="round"/>
<line x1="220" y1="356" x2="172" y2="370" stroke="#14BCEB" stroke-width="9" stroke-linecap="round"/>
<line x1="226" y1="382" x2="183" y2="398" stroke="#FF7A00" stroke-width="9" stroke-linecap="round"/>
<line x1="955" y1="247" x2="1005" y2="247" stroke="#FFD329" stroke-width="9" stroke-linecap="round"/>
<line x1="958" y1="273" x2="1008" y2="271" stroke="#14BCEB" stroke-width="9" stroke-linecap="round"/>
<line x1="963" y1="299" x2="1002" y2="308" stroke="#FF7A00" stroke-width="9" stroke-linecap="round"/>
</svg>